<svg width="114" height="32" viewBox="0 0 114 32" fill="none" xmlns="http://www.w3.org/2000/svg">
<g clip-path="url(#clip0_103_28758)">
<path d="M45.5835 17.0617H43.167V6.51709H46.4622C47.9999 6.51709 48.9519 6.73677 49.6475 7.28597C50.0336 7.62073 50.3394 8.03808 50.5422 8.5071C50.745 8.97612 50.8397 9.48477 50.8192 9.99535C50.8479 10.5412 50.7389 11.0855 50.5022 11.5781C50.2655 12.0708 49.9086 12.496 49.4645 12.8146C48.8421 13.2539 47.9633 13.437 46.8283 13.437H45.5835V17.0617ZM46.5354 11.5697C47.3043 11.5697 47.6704 11.4599 47.9267 11.167C48.1987 10.8383 48.3419 10.4218 48.3295 9.99535C48.3443 9.75712 48.306 9.51856 48.2174 9.29694C48.1287 9.07532 47.9919 8.87617 47.8169 8.71389C47.5972 8.49421 47.2311 8.42099 46.5354 8.42099H45.5835V11.5697H46.5354Z" fill="#2E516A"/>
<path d="M51.8442 9.73903H54.0044L54.1143 10.3981C54.3732 10.1257 54.6859 9.91024 55.0326 9.76527C55.3792 9.62029 55.7523 9.54901 56.128 9.55596C56.4008 9.54537 56.6734 9.58255 56.9335 9.66581L56.5307 11.6429C56.2171 11.5153 55.8807 11.453 55.5422 11.4599C54.5902 11.4599 54.2607 11.9724 54.2607 13.4736V17.0617H51.8442V9.73903Z" fill="#2E516A"/>
<path d="M59.6066 13.9864C59.6798 15.0115 60.3755 15.5607 61.7302 15.5607C62.6146 15.5699 63.49 15.3823 64.2931 15.0115L64.8423 16.769C63.7938 17.1233 62.6897 17.2846 61.5837 17.2449C60.1192 17.2449 59.1672 16.952 58.3983 16.3296C58.0136 15.9488 57.7136 15.4911 57.518 14.9863C57.3224 14.4815 57.2356 13.9412 57.2633 13.4005C57.2633 10.9475 58.6913 9.55615 61.1443 9.55615C63.5974 9.55615 64.9521 10.8742 64.9521 13.3273C64.9545 13.5476 64.9423 13.7677 64.9155 13.9864H59.6066ZM62.6821 12.5218C62.6089 11.5333 62.1695 11.1305 61.2176 11.1305C60.2656 11.1305 59.7164 11.6065 59.6798 12.5218H62.6821Z" fill="#2E516A"/>
<path d="M66.4896 15.0848C67.1419 15.4348 67.8731 15.6113 68.6132 15.5974C69.4919 15.5974 69.8946 15.3777 69.8946 14.9384C69.8946 14.499 69.6749 14.4258 69.1257 14.2793C67.9541 14.023 67.4782 13.84 67.0022 13.5104C66.7087 13.3327 66.4687 13.079 66.3076 12.776C66.1465 12.4731 66.0702 12.1323 66.0868 11.7896C66.0868 10.3617 67.112 9.55621 69.0159 9.55621C69.9881 9.54268 70.9471 9.78243 71.7985 10.2519L71.0663 11.7896C70.4813 11.4291 69.8125 11.2272 69.1257 11.2038C68.5399 11.2038 68.247 11.3869 68.247 11.7164C68.247 11.8104 68.2749 11.9022 68.327 11.9804C68.3791 12.0586 68.4532 12.1196 68.5399 12.1558C68.8619 12.3272 69.2073 12.4506 69.5651 12.5219C70.5537 12.8148 70.8832 12.9612 71.3225 13.2908C71.5708 13.4755 71.7682 13.7202 71.8963 14.0019C72.0243 14.2836 72.0789 14.5932 72.0548 14.9017C72.0548 16.4761 70.993 17.245 68.8328 17.245C67.7952 17.2883 66.76 17.1137 65.7939 16.7324L66.4896 15.0848Z" fill="#2E516A"/>
<path d="M79.5606 16.8055C78.8009 17.1402 77.973 17.2907 77.1441 17.2449C74.3249 17.2449 72.9336 16 72.9336 13.4005C72.9336 10.8009 74.3249 9.55608 76.8146 9.55608C77.7426 9.52379 78.6595 9.76577 79.4507 10.2517L78.7551 11.8627C78.5393 11.6779 78.2891 11.5376 78.019 11.4496C77.7488 11.3616 77.464 11.3278 77.1807 11.3501C76.0091 11.3501 75.4233 12.0458 75.4233 13.4371C75.4233 14.7918 76.0457 15.4874 77.254 15.4874C77.8393 15.4884 78.4166 15.3503 78.9382 15.0847L79.5606 16.8055Z" fill="#2E516A"/>
<path d="M80.5493 9.73896H82.6729L82.8193 10.398C83.0769 10.1239 83.3893 9.90713 83.7363 9.76202C84.0833 9.61691 84.4571 9.54667 84.8331 9.55589C85.0938 9.54732 85.354 9.5845 85.6019 9.66574L85.1992 11.6429C84.8865 11.5121 84.5494 11.4497 84.2106 11.4598C83.2587 11.4598 82.9292 11.9724 82.9292 13.4735V17.0616H80.5493V9.73896Z" fill="#2E516A"/>
<path d="M89.0434 7.50594C89.0547 7.68033 89.0281 7.8551 88.9654 8.01821C88.9026 8.18132 88.8052 8.32888 88.6799 8.4507C88.5546 8.57253 88.4044 8.66571 88.2396 8.72384C88.0748 8.78197 87.8993 8.80366 87.7253 8.78741C86.8832 8.78741 86.334 8.31143 86.334 7.50594C86.334 6.70045 86.8832 6.22448 87.7253 6.22448C87.8993 6.20822 88.0748 6.2299 88.2396 6.28803C88.4044 6.34616 88.5546 6.43935 88.6799 6.56117C88.8052 6.68299 88.9026 6.83055 88.9654 6.99366C89.0281 7.15677 89.0547 7.33155 89.0434 7.50594V7.50594ZM86.5171 9.73934H88.8969V17.062H86.5171V9.73934Z" fill="#2E516A"/>
<path d="M90.6543 5.74805H93.0708V10.3247C93.6853 9.78487 94.4876 9.50866 95.3042 9.55583C97.3545 9.55583 98.5994 11.0204 98.5994 13.4002C98.5994 15.7801 97.3545 17.2446 95.231 17.2446C94.7972 17.2731 94.3624 17.2059 93.9575 17.0477C93.5525 16.8895 93.1873 16.6443 92.8877 16.3293L92.7046 17.0615H90.6543V5.74805ZM93.0708 13.4002C93.0708 14.7183 93.62 15.4872 94.6451 15.4872C95.6703 15.4872 96.1463 14.7915 96.1463 13.4002C96.1463 12.0089 95.6337 11.3499 94.6085 11.3499C93.5834 11.3499 93.0708 12.1188 93.0708 13.4002V13.4002Z" fill="#2E516A"/>
<path d="M102.005 13.9864C102.041 15.0115 102.773 15.5607 104.128 15.5607C105.001 15.5745 105.866 15.3865 106.654 15.0115L107.204 16.769C106.169 17.127 105.076 17.2884 103.982 17.2449C102.517 17.2449 101.529 16.952 100.796 16.3296C100.412 15.9488 100.112 15.4911 99.916 14.9863C99.7204 14.4815 99.6336 13.9412 99.6613 13.4005C99.6613 10.9475 101.089 9.55615 103.542 9.55615C105.995 9.55615 107.35 10.8742 107.35 13.3273C107.352 13.5476 107.34 13.7677 107.313 13.9864H102.005ZM105.043 12.5218C105.007 11.5333 104.567 11.1305 103.579 11.1305C102.59 11.1305 102.114 11.6065 102.041 12.5218H105.043Z" fill="#2E516A"/>
<path d="M108.778 9.73896H110.901L111.048 10.398C111.307 10.1257 111.619 9.91017 111.966 9.7652C112.313 9.62023 112.686 9.54895 113.062 9.5559C113.334 9.54942 113.606 9.58651 113.867 9.66574L113.464 11.6429C113.15 11.5181 112.814 11.4559 112.476 11.4598C111.487 11.4598 111.158 11.9724 111.158 13.4735V17.0616H108.778V9.73896Z" fill="#2E516A"/>
<path d="M44.9245 31.8537H43.3501V21.2725H46.1327C47.4874 21.2725 48.3661 21.5288 48.9885 22.0047C49.611 22.4807 50.0869 23.4693 50.0869 24.5677C50.0869 25.6661 49.6476 26.7278 48.8055 27.2404C47.9634 27.753 47.4142 27.7896 46.3524 27.7896H44.9245V31.8537ZM46.0961 26.5448C47.048 26.5448 47.524 26.4349 47.8901 26.1054C48.2807 25.6902 48.4912 25.1375 48.476 24.5677C48.4992 24.2486 48.4448 23.9287 48.3172 23.6354C48.1897 23.342 47.9929 23.084 47.7437 22.8835C47.4142 22.6638 46.9382 22.5539 46.0961 22.5539H44.9245V26.5448H46.0961Z" fill="#2E516A"/>
<path d="M58.5081 28.3019C58.5081 30.572 57.0436 31.9999 54.7004 31.9999C52.3571 31.9999 50.8926 30.572 50.8926 28.2653C50.8926 25.9587 52.3937 24.604 54.7004 24.604C57.007 24.604 58.5081 26.0319 58.5081 28.3019ZM52.5036 28.2653C52.5036 29.8763 53.3457 30.8283 54.737 30.8283C56.1283 30.8283 56.9338 29.8763 56.9338 28.3019C56.9338 26.7276 56.0917 25.7756 54.7004 25.7756C53.3091 25.7756 52.5036 26.7276 52.5036 28.2653V28.2653Z" fill="#2E516A"/>
<path d="M61.9498 22.5171C61.9555 22.642 61.9344 22.7666 61.8881 22.8827C61.8417 22.9988 61.7711 23.1036 61.681 23.1902C61.5909 23.2769 61.4834 23.3433 61.3656 23.3851C61.2478 23.4268 61.1224 23.443 60.9978 23.4324C60.3754 23.4324 60.0093 23.1029 60.0093 22.5171C60.0089 22.3905 60.0348 22.2651 60.0853 22.149C60.1358 22.0329 60.2098 21.9285 60.3027 21.8425C60.3956 21.7565 60.5054 21.6907 60.625 21.6492C60.7447 21.6078 60.8716 21.5916 60.9978 21.6018C61.1224 21.5912 61.2478 21.6074 61.3656 21.6491C61.4834 21.6909 61.5909 21.7573 61.681 21.8439C61.7711 21.9306 61.8417 22.0354 61.8881 22.1515C61.9344 22.2676 61.9555 22.3922 61.9498 22.5171V22.5171ZM60.229 24.7505H61.7667V31.8535H60.229V24.7505Z" fill="#2E516A"/>
<path d="M63.8535 24.7505H65.2448L65.318 25.5926C65.9039 24.8969 66.5995 24.604 67.6613 24.604C68.7231 24.604 69.6384 25.0068 70.0412 25.8122C70.2985 26.5274 70.4105 27.2867 70.3707 28.0456V31.8534H68.8329V28.1555C68.8329 26.4347 68.3936 25.8122 67.2586 25.8122C66.943 25.7865 66.6266 25.8522 66.3474 26.0015C66.0682 26.1509 65.8379 26.3775 65.6842 26.6543C65.4645 27.0571 65.3913 27.6063 65.3913 28.5216V31.8534H63.8535V24.7505Z" fill="#2E516A"/>
<path d="M71.7256 25.9587V24.7505H72.824L72.9338 22.6269L74.2885 22.4072V24.7505H76.229V25.9587H74.2885V29.1075C74.2885 30.3523 74.5448 30.6818 75.3869 30.6818C75.6228 30.6784 75.8571 30.6414 76.0826 30.572L76.3389 31.7802C75.9004 31.9153 75.4427 31.9771 74.9842 31.9633C73.9956 31.9633 73.4098 31.707 73.0803 31.1212C72.7508 30.5354 72.7874 30.2425 72.7874 28.9976V25.9587H71.7256Z" fill="#2E516A"/>
<path d="M81.721 24.3847C81.721 24.8216 81.5474 25.2407 81.2384 25.5497C80.9294 25.8587 80.5104 26.0323 80.0734 26.0323C79.6364 26.0323 79.2173 25.8587 78.9083 25.5497C78.5994 25.2407 78.4258 24.8216 78.4258 24.3847C78.4256 24.1716 78.4686 23.9607 78.5522 23.7648C78.6359 23.5688 78.7584 23.3919 78.9125 23.2447C79.0665 23.0975 79.2488 22.9831 79.4484 22.9084C79.6479 22.8338 79.8606 22.8004 80.0734 22.8103C80.2862 22.8004 80.4988 22.8338 80.6984 22.9084C80.8979 22.9831 81.0802 23.0975 81.2343 23.2447C81.3883 23.3919 81.5109 23.5688 81.5945 23.7648C81.6782 23.9607 81.7212 24.1716 81.721 24.3847V24.3847ZM78.7919 24.3847C78.7919 24.6381 78.8671 24.8859 79.0079 25.0966C79.1487 25.3074 79.3488 25.4716 79.583 25.5686C79.8171 25.6656 80.0748 25.691 80.3234 25.6415C80.572 25.5921 80.8003 25.47 80.9795 25.2908C81.1587 25.1116 81.2808 24.8833 81.3302 24.6347C81.3797 24.3861 81.3543 24.1284 81.2573 23.8943C81.1603 23.6601 80.9961 23.46 80.7853 23.3192C80.5746 23.1784 80.3268 23.1032 80.0734 23.1032C79.9037 23.0981 79.7348 23.1278 79.577 23.1904C79.4193 23.253 79.276 23.3472 79.156 23.4673C79.036 23.5873 78.9417 23.7306 78.8791 23.8883C78.8165 24.0461 78.7868 24.215 78.7919 24.3847V24.3847ZM79.8903 25.1535H79.5974V23.6158H80.11C80.5493 23.6158 80.7324 23.7622 80.7324 24.0551C80.7324 24.3481 80.6226 24.4579 80.2931 24.4945L80.8423 25.1535H80.4761L79.8903 24.4213V25.1535ZM80.11 24.3114C80.3297 24.3114 80.4395 24.2382 80.4395 24.0551C80.4395 23.8721 80.3297 23.8355 80.11 23.8355H79.8903V24.3114H80.11Z" fill="#2E516A"/>
<path d="M1.3913 31.8534C2.1597 31.8534 2.78261 31.2305 2.78261 30.4621C2.78261 29.6937 2.1597 29.0708 1.3913 29.0708C0.622908 29.0708 0 29.6937 0 30.4621C0 31.2305 0.622908 31.8534 1.3913 31.8534Z" fill="#FFC82F"/>
<path d="M27.167 1.64743L29.437 3.91744C29.9021 3.46346 30.5262 3.20932 31.1761 3.20932C31.8261 3.20932 32.4502 3.46346 32.9153 3.91744L35.1853 1.64743C34.1167 0.594275 32.6765 0.00390625 31.1761 0.00390625C29.6758 0.00390625 28.2356 0.594275 27.167 1.64743V1.64743Z" fill="#52A0CC"/>
<path d="M35.1856 1.64746L32.9155 3.91748C33.3695 4.38254 33.6236 5.00669 33.6236 5.65661C33.6236 6.30652 33.3695 6.93067 32.9155 7.39574L35.1856 9.66577C35.7158 9.14139 36.1368 8.51705 36.4241 7.82887C36.7114 7.14069 36.8593 6.40235 36.8593 5.65661C36.8593 4.91086 36.7114 4.17254 36.4241 3.48436C36.1368 2.79618 35.7158 2.17183 35.1856 1.64746Z" fill="#3C6CB4"/>
<path d="M29.4804 3.91255L27.2021 1.63428L16.5823 12.2542L18.8605 14.5324L29.4804 3.91255Z" fill="url(#paint0_linear_103_28758)"/>
<path d="M35.1923 9.66206L32.9141 7.38379L22.2942 18.0037L24.5725 20.2819L35.1923 9.66206Z" fill="url(#paint1_linear_103_28758)"/>
<path d="M8.23808 25.1901L5.01611 23.8354L16.5859 12.2656L18.8559 14.5356L8.23808 25.1901Z" fill="url(#paint2_linear_103_28758)"/>
<path d="M13.0344 31.8535L11.6797 28.6315L22.2975 18.0137L24.5676 20.2837L13.0344 31.8535Z" fill="url(#paint3_linear_103_28758)"/>
<path d="M8.23808 23.8354H5.01611V31.8538L8.23808 28.6318V23.8354Z" fill="#FFC82F"/>
<path d="M13.0344 28.6313H8.23808L5.01611 31.8533H13.0344V28.6313Z" fill="#1DA696"/>
</g>
<defs>
<linearGradient id="paint0_linear_103_28758" x1="27.575" y1="3.5501" x2="18.2185" y2="12.9066" gradientUnits="userSpaceOnUse">
<stop stop-color="#52A0CC"/>
<stop offset="1" stop-color="#397393"/>
</linearGradient>
<linearGradient id="paint1_linear_103_28758" x1="33.5742" y1="9.00188" x2="24.0495" y2="18.5266" gradientUnits="userSpaceOnUse">
<stop stop-color="#3C6CB4"/>
<stop offset="1" stop-color="#294B82"/>
</linearGradient>
<linearGradient id="paint2_linear_103_28758" x1="7.82912" y1="23.2787" x2="16.8464" y2="14.2614" gradientUnits="userSpaceOnUse">
<stop stop-color="#FFC82F"/>
<stop offset="1" stop-color="#B28D1F"/>
</linearGradient>
<linearGradient id="paint3_linear_103_28758" x1="14.084" y1="28.5082" x2="22.6508" y2="19.9414" gradientUnits="userSpaceOnUse">
<stop stop-color="#1DA696"/>
<stop offset="1" stop-color="#08786C"/>
</linearGradient>
<clipPath id="clip0_103_28758">
<rect width="113.867" height="32" fill="white"/>
</clipPath>
</defs>
</svg>
